<?xml version="1.0" encoding="utf-8"?>
<!-- Generator: Adobe Illustrator 16.0.4, SVG Export Plug-In . SVG Version: 6.00 Build 0)  -->
<!DOCTYPE svg PUBLIC "-//W3C//DTD SVG 1.1//EN" "http://www.w3.org/Graphics/SVG/1.1/DTD/svg11.dtd">
<svg version="1.1" id="Layer_1" xmlns="http://www.w3.org/2000/svg" xmlns:xlink="http://www.w3.org/1999/xlink" x="0px" y="0px"
	 width="331.775px" height="83.253px" viewBox="0 0 331.775 83.253" enable-background="new 0 0 331.775 83.253"
	 xml:space="preserve">
<path fill="#4D4B4E" d="M63.761,0h-8.743v62.048c0,3.371-1.669,6.685-3.221,8.336c-1.589,1.68-3.986,3.472-5.959,3.472H19.273
	c-3.252,0-5.868-1.192-7.776-3.544c-1.827-2.26-2.753-5.115-2.753-8.489V43.354c0-3.356,0.961-6.33,2.856-8.838
	c1.993-2.641,4.664-3.981,7.938-3.981h30.325l0.1-9.4L19.634,21.01C13.688,21.01,9.04,23,5.43,27.092
	C1.827,31.181,0,36.444,0,42.736V62.96c0,6.012,1.813,10.954,5.389,14.688c3.611,3.771,8.187,5.604,13.99,5.604h26.489
	c2.731,0,8.381-2.067,12.393-6.664c3.646-4.291,5.501-9.495,5.501-15.452V0z"/>
<path fill="#CE202B" d="M48.633,67.024c1.81-2.14,2.727-4.738,2.727-7.728c0-1.97-0.5-3.775-1.485-5.365
	c-0.429-0.7-0.958-1.371-1.577-1.996c-2.002-2.021-5.897-2.722-5.937-2.729c-1.152-0.199-3.037-0.362-4.202-0.362H25.91
	c-1.237,0-3.192-0.354-4.357-0.79c-0.077-0.029-1.875-0.736-1.875-3.732c0-2.295,1.578-3.387,2.412-3.644
	c1.181-0.362,3.142-0.657,4.372-0.657h21.056c0.915,0,1.66-0.745,1.66-1.66v-2.758c0-0.916-0.745-1.661-1.66-1.661H25.179
	c-1.165,0-3.049,0.166-4.2,0.369c-0.039,0.007-3.938,0.721-5.932,2.758c-2.034,2.081-3.065,4.57-3.065,7.399
	c0,2.004,0.498,3.816,1.479,5.388c0.414,0.658,0.916,1.284,1.49,1.86c2.06,2.098,5.99,2.825,6.029,2.832
	c1.146,0.205,3.029,0.371,4.199,0.371h12.155c1.24,0,3.196,0.349,4.36,0.776c0.08,0.03,1.963,0.756,1.963,3.748
	c0,3.342-2.32,4.234-2.419,4.271c-1.165,0.429-3.121,0.777-4.36,0.777H15.383c-0.916,0-1.66,0.745-1.66,1.66v2.754
	c0,0.915,0.745,1.66,1.66,1.66H38.16c1.169,0,3.05-0.174,4.192-0.388C42.395,70.169,46.7,69.337,48.633,67.024z"/>
<g>
	<path fill="#4D4B4E" d="M84.2,36.252c9.959,0,15.078,6.199,15.078,13.677c0,7.839-4.959,13.598-15.837,13.598H72.163V36.252H84.2z
		 M78.962,58.528H83.4c6.839,0,8.879-4.64,8.879-8.64c0-4.678-2.519-8.637-8.959-8.637h-4.358V58.528z"/>
	<polygon fill="#4D4B4E" points="107.654,54.502 100.044,44.232 105.872,44.232 110.058,50.288 114.273,44.232 120.073,44.232 
		112.463,54.502 112.463,63.527 107.654,63.527 	"/>
	<polygon fill="#4D4B4E" points="141.492,63.527 137.446,63.527 126.781,51.165 126.781,63.527 121.972,63.527 121.972,44.233 
		126.386,44.233 136.682,56.03 136.682,44.233 141.492,44.233 	"/>
	<path fill="#4D4B4E" d="M166.533,63.527h-5.178l-1.584-3.819h-8.628l-1.443,3.819h-5.092l7.78-19.293h5.573L166.533,63.527z
		 M155.245,48.844l-2.829,7.497h5.941L155.245,48.844z"/>
	<polygon fill="#4D4B4E" points="186.199,44.233 190.387,44.233 190.387,63.527 185.577,63.527 185.577,51.475 180.372,57.53 
		179.635,57.53 174.43,51.475 174.43,63.527 169.622,63.527 169.622,44.233 173.807,44.233 180.004,51.39 	"/>
	<rect x="195.679" y="44.233" fill="#4D4B4E" width="4.81" height="19.294"/>
	<path fill="#4D4B4E" d="M223.774,61.858c-2.688,1.386-4.725,1.924-7.582,1.924c-7.497,0-11.23-4.866-11.23-9.845
		c0-5.148,4.215-9.958,11.599-9.958c2.688,0,5.092,0.565,6.987,1.696v4.301c-2.123-1.188-4.271-1.98-6.648-1.98
		c-4.102,0-6.986,2.432-6.986,5.856c0,3.45,2.856,5.912,6.873,5.912c2.518,0,4.217-0.792,6.988-2.121V61.858z"/>
	<path fill="#CE202B" d="M242.252,42.25c-2.318-2.199-4.559-2.84-6.398-2.84c-2.52,0-4.32,1.32-4.32,3.239
		c0,5.24,11.799,5.16,11.799,13.838c0,4.279-3.239,7.4-7.639,7.4c-2.961,0-5.359-0.801-7.639-2.521v-4.96
		c2,2.56,4.52,3.96,7.199,3.96c3.039,0,4.438-1.92,4.438-3.438c0-5.641-11.797-6.281-11.797-13.759c0-4.44,3.279-7.279,8.278-7.279
		c2.08,0,4.16,0.64,6.079,1.92V42.25z"/>
	<rect x="247.966" y="44.233" fill="#CE202B" width="2.772" height="19.294"/>
	<path fill="#CE202B" d="M272.778,62.197c-2.574,1.132-4.668,1.585-7.355,1.585c-5.912,0-10.27-4.131-10.27-9.788
		c0-5.687,4.471-10.015,10.354-10.015c2.264,0,3.849,0.366,6.875,1.641v2.802c-2.263-1.246-4.611-1.896-6.931-1.896
		c-4.187,0-7.44,3.195-7.44,7.384c0,4.3,3.226,7.327,7.809,7.327c1.499,0,2.857-0.34,4.188-0.766v-3.959h-3.707v-2.489h6.479V62.197
		z"/>
	<polygon fill="#CE202B" points="295.499,63.527 293.123,63.527 280.223,48.673 280.223,63.527 277.62,63.527 277.62,44.233 
		279.826,44.233 292.895,59.171 292.895,44.233 295.499,44.233 	"/>
	<path fill="#CE202B" d="M317.343,63.527h-2.829l-2.574-5.687h-8.204l-2.433,5.687h-2.829l8.289-19.406h1.952L317.343,63.527z
		 M304.811,55.351h5.997l-3.111-6.986L304.811,55.351z"/>
	<polygon fill="#CE202B" points="323.062,61.038 331.775,61.038 331.775,63.527 320.29,63.527 320.29,44.232 323.062,44.232 	"/>
</g>
</svg>
