<?xml version="1.0" encoding="UTF-8"?>
<svg width="1175px" height="650px" viewBox="0 0 1175 650" version="1.1" xmlns="http://www.w3.org/2000/svg" xmlns:xlink="http://www.w3.org/1999/xlink">
    <!-- Generator: Sketch 41.2 (35397) - http://www.bohemiancoding.com/sketch -->
    <title>Group</title>
    <desc>Created with Sketch.</desc>
    <defs></defs>
    <g id="Page-1" stroke="none" stroke-width="1" fill="none" fill-rule="evenodd">
        <g id="Group" transform="translate(1.000000, 1.000000)" stroke="#DDD9D2" stroke-width="2">
            <path d="M1006.1102,0 L165.991952,0 C143.132606,0 123.647282,18.7590869 123.647282,41.9936576 L123.647282,594.632903 L1048.45487,594.632903 L1048.45487,41.9936576 C1048.45487,18.7573929 1029.03899,0 1006.1102,0 Z M160.910592,560.722389 L1009.62142,560.722389 L1009.62142,66.0645442 L160.910592,66.0645442 L160.910592,560.722389 Z" id="Combined-Shape"></path>
            <path d="M587.744863,25.4096355 C591.486438,25.4096355 594.52001,28.443546 594.52001,32.1855383 C594.52001,35.9275307 591.486438,38.9614411 587.744863,38.9614411 C584.003288,38.9614411 580.969715,35.9275307 580.969715,32.1855383 C580.969715,28.443546 584.003288,25.4096355 587.744863,25.4096355 Z" id="Stroke-5"></path>
            <path d="M1085.3989,647.116844 L86.8726306,647.116844 C34.9614531,647.116844 0,629.301301 0,621.727536 L0,598.69963 C0,596.422927 2.26120536,594.584963 5.07458522,594.584963 L1167.19525,594.584963 C1170.01032,594.584963 1172.27492,596.422927 1172.27492,598.69963 L1172.27492,622.633813 C1172.26306,628.622017 1145.18957,647.116844 1085.3989,647.116844 Z" id="Stroke-9"></path>
            <path d="M0.847740288,618.350677 L1169.12363,618.350677" id="Stroke-11"></path>
            <path d="M713.085085,596.279447 L713.085085,601.510444 C713.085085,605.237191 705.744213,606.363684 700.190286,606.363684 L472.25401,606.363684 C466.408752,606.363684 459.017067,605.238884 459.017067,601.510444 L459.017067,596.279447" id="Stroke-17"></path>
        </g>
    </g>
</svg>