<?xml version="1.0" encoding="UTF-8"?>
<svg width="356px" height="745px" viewBox="0 0 356 745" version="1.1" xmlns="http://www.w3.org/2000/svg" xmlns:xlink="http://www.w3.org/1999/xlink">
    <!-- Generator: Sketch 41.2 (35397) - http://www.bohemiancoding.com/sketch -->
    <title>product-mobile</title>
    <desc>Created with Sketch.</desc>
    <defs></defs>
    <g id="Page-1" stroke="none" stroke-width="1" fill="none" fill-rule="evenodd">
        <g id="product-mobile" transform="translate(1.000000, 1.000000)" stroke="#DFDBD5" stroke-width="2">
            <path d="M353.312807,698.844104 C353.312807,722.780796 333.769173,742.178378 309.659651,742.178378 L43.6531562,742.178378 C19.5436338,742.178378 0,722.780796 0,698.844104 L0,43.3369845 C0,19.4002921 19.5436338,0 43.6531562,0 L309.659651,0 C333.769173,0 353.312807,19.4002921 353.312807,43.3369845 L353.312807,698.844104 Z" id="Fill-1"></path>
            <path d="M206.959901,69.0998587 C206.959901,70.8206557 205.766791,72.2081329 204.296467,72.2081329 L149.663435,72.2081329 C148.187675,72.2081329 147,70.8179458 147,69.0998587 L147,62.1082742 C147,60.3874772 148.19311,59 149.663435,59 L204.296467,59 C205.766791,59 206.959901,60.3901871 206.959901,62.1082742 L206.959901,69.0998587 Z" id="Stroke-8"></path>
            <path d="M177,24 C181.416,24 185,27.584 185,32 C185,36.4186666 181.416,40 177,40 C172.581333,40 169,36.4186666 169,32 C169,27.584 172.581333,24 177,24 Z" id="Stroke-9"></path>
            <path d="M176.498631,660 C191.687385,660 204,672.315403 204,687.501375 C204,702.687347 191.687385,715 176.498631,715 C161.309876,715 149,702.687347 149,687.501375 C149,672.315403 161.309876,660 176.498631,660 Z" id="Stroke-10"></path>
            <polygon id="Stroke-7" points="25 639 329.202327 639 329.202327 97 25 97"></polygon>
        </g>
    </g>
</svg>